# xmcd
#
# Track frame offsets:
#	150
#	2012
#	16427
#	41177
#	52982
#	74670
#	89570
#	106292
#	127247
#	137880
#	153105
#	163055
#	171072
#	183147
#
# Disc length: 2618 seconds
#
# Revision: 1
# Processed by: cddbd v1.5.1PL0 Copyright (c) Steve Scherf et al.
# Submitted via: CDex 1.50Beta5
#
DISCID=be0a380e
DTITLE=宮川泰 - 宮川泰ザヒットパレード
DYEAR=1900
DGENRE=Pop
TTITLE0=G1ファンファーレ
TTITLE1=ズームイン朝
TTITLE2=恋のバカンス
TTITLE3=逢いたくて逢いたくて
TTITLE4=東京たそがれ
TTITLE5=君をのせて
TTITLE6=若いってすばらしい
TTITLE7=テレビ・テーマ・メドレー
TTITLE8=パパと一緒に
TTITLE9=組曲「宇宙戦艦ヤマト」
TTITLE10=宮川泰/同
TTITLE11=宮川泰/同
TTITLE12=宮川泰/同
TTITLE13=ゲバゲバ90分
EXTD=
EXTT0=
EXTT1=
EXTT2=
EXTT3=
EXTT4=
EXTT5=
EXTT6=
EXTT7=
EXTT8=
EXTT9=
EXTT10=
EXTT11=
EXTT12=
EXTT13=
PLAYORDER=
